<svg viewBox="0 0 2000 2000" xmlns="http://www.w3.org/2000/svg">
<g fill="#c2a633">
<path d="m1024 659c0-9-7-16-16-16h-192c-9 0-16 7-16 16v74h176c27 0 48 21 48 48s-21 48-48 48h-176v90h176c27 0 48 21 48 48s-21 48-48 48h-176v74c0 9 7 16 16 16h192c9 0 16-7 16-16z"/>
<path d="m1536 416c0-35-29-64-64-64h-944c-35 0-64 29-64 64v768c0 35 29 64 64 64h944c35 0 64-29 64-64zm-128 612c0 62-50 112-112 112h-368c-62 0-112-50-112-112v-456c0-62 50-112 112-112h368c62 0 112 50 112 112z"/>
<path d="m1920 234c0-106-86-192-192-192h-1456c-106 0-192 86-192 192v1532c0 106 86 192 192 192h1456c106 0 192-86 192-192zm-192 1310c0 53-43 96-96 96h-1264c-53 0-96-43-96-96v-1088c0-53 43-96 96-96h1264c53 0 96 43 96 96z"/>
</g>
<path d="m1000 1426c-239 0-426-187-426-426s187-426 426-426 426 187 426 426-187 426-426 426zm335-426c0-185-150-335-335-335s-335 150-335 335 150 335 335 335 335-150 335-335z" fill="#c2a633" fill-rule="evenodd"/>
<g fill="#c2a633">
<path d="m1195 815h-56c-19 0-34 10-43 25-6-16-20-25-39-25h-57c-24 0-44 21-44 47v276c0 26 20 47 44 47h57c19 0 33-10 39-25 9 15 24 25 43 25h56c77 0 157-62 157-185s-80-185-157-185zm-44 296h-68v-222h68c55 0 88 48 88 111s-33 111-88 111z"/>
<path d="m979 944c0-14-11-26-25-26h-112c-14 0-25 12-25 26s11 26 25 26h35v141c0 14 12 26 26 26s26-12 26-26v-141h25c14 0 25-12 25-26z"/>
</g>
</svg>