<svg width="1200" height="630" viewBox="0 0 1200 630" xmlns="http://www.w3.org/2000/svg">
  <!-- Light background -->
  <rect width="1200" height="630" fill="#f8fafc"/>
  
  <!-- Header section -->
  <rect x="60" y="40" width="200" height="14" fill="#1e293b" rx="2"/>
  <rect x="60" y="64" width="320" height="8" fill="#cbd5e1" rx="1"/>
  
  <!-- Blog post cards grid -->
  
  <!-- Card 1 -->
  <g transform="translate(60, 120)">
    <rect width="340" height="160" fill="#ffffff" stroke="#e2e8f0" stroke-width="2"/>
    <!-- Title lines -->
    <rect x="20" y="20" width="240" height="12" fill="#334155" rx="1"/>
    <rect x="20" y="40" width="180" height="12" fill="#334155" rx="1"/>
    <!-- Date -->
    <rect x="20" y="68" width="80" height="8" fill="#94a3b8" rx="1"/>
    <!-- Tags -->
    <rect x="20" y="88" width="60" height="24" fill="#3b82f6" rx="2"/>
    <rect x="88" y="88" width="48" height="24" fill="#10b981" rx="2"/>
    <rect x="144" y="88" width="72" height="24" fill="#f59e0b" rx="2"/>
    <!-- Read more indicator -->
    <rect x="20" y="128" width="100" height="8" fill="#64748b" rx="1"/>
  </g>
  
  <!-- Card 2 -->
  <g transform="translate(430, 120)">
    <rect width="340" height="160" fill="#ffffff" stroke="#e2e8f0" stroke-width="2"/>
    <!-- Title lines -->
    <rect x="20" y="20" width="280" height="12" fill="#334155" rx="1"/>
    <rect x="20" y="40" width="200" height="12" fill="#334155" rx="1"/>
    <!-- Date -->
    <rect x="20" y="68" width="80" height="8" fill="#94a3b8" rx="1"/>
    <!-- Tags -->
    <rect x="20" y="88" width="54" height="24" fill="#8b5cf6" rx="2"/>
    <rect x="82" y="88" width="66" height="24" fill="#ef4444" rx="2"/>
    <rect x="156" y="88" width="48" height="24" fill="#06b6d4" rx="2"/>
    <!-- Read more indicator -->
    <rect x="20" y="128" width="100" height="8" fill="#64748b" rx="1"/>
  </g>
  
  <!-- Card 3 -->
  <g transform="translate(800, 120)">
    <rect width="340" height="160" fill="#ffffff" stroke="#e2e8f0" stroke-width="2"/>
    <!-- Title lines -->
    <rect x="20" y="20" width="260" height="12" fill="#334155" rx="1"/>
    <rect x="20" y="40" width="220" height="12" fill="#334155" rx="1"/>
    <!-- Date -->
    <rect x="20" y="68" width="80" height="8" fill="#94a3b8" rx="1"/>
    <!-- Tags -->
    <rect x="20" y="88" width="72" height="24" fill="#ec4899" rx="2"/>
    <rect x="100" y="88" width="54" height="24" fill="#14b8a6" rx="2"/>
    <!-- Read more indicator -->
    <rect x="20" y="128" width="100" height="8" fill="#64748b" rx="1"/>
  </g>
  
  <!-- Card 4 -->
  <g transform="translate(60, 310)">
    <rect width="340" height="160" fill="#ffffff" stroke="#e2e8f0" stroke-width="2"/>
    <!-- Title lines -->
    <rect x="20" y="20" width="300" height="12" fill="#334155" rx="1"/>
    <rect x="20" y="40" width="160" height="12" fill="#334155" rx="1"/>
    <!-- Date -->
    <rect x="20" y="68" width="80" height="8" fill="#94a3b8" rx="1"/>
    <!-- Tags -->
    <rect x="20" y="88" width="48" height="24" fill="#f97316" rx="2"/>
    <rect x="76" y="88" width="60" height="24" fill="#0ea5e9" rx="2"/>
    <rect x="144" y="88" width="54" height="24" fill="#84cc16" rx="2"/>
    <rect x="206" y="88" width="66" height="24" fill="#a855f7" rx="2"/>
    <!-- Read more indicator -->
    <rect x="20" y="128" width="100" height="8" fill="#64748b" rx="1"/>
  </g>
  
  <!-- Card 5 -->
  <g transform="translate(430, 310)">
    <rect width="340" height="160" fill="#ffffff" stroke="#e2e8f0" stroke-width="2"/>
    <!-- Title lines -->
    <rect x="20" y="20" width="220" height="12" fill="#334155" rx="1"/>
    <rect x="20" y="40" width="280" height="12" fill="#334155" rx="1"/>
    <!-- Date -->
    <rect x="20" y="68" width="80" height="8" fill="#94a3b8" rx="1"/>
    <!-- Tags -->
    <rect x="20" y="88" width="66" height="24" fill="#dc2626" rx="2"/>
    <rect x="94" y="88" width="48" height="24" fill="#7c3aed" rx="2"/>
    <!-- Read more indicator -->
    <rect x="20" y="128" width="100" height="8" fill="#64748b" rx="1"/>
  </g>
  
  <!-- Card 6 (Featured/Larger) -->
  <g transform="translate(800, 310)">
    <rect width="340" height="160" fill="#ffffff" stroke="#e2e8f0" stroke-width="2"/>
    <!-- Featured badge -->
    <rect x="260" y="20" width="60" height="20" fill="#fbbf24" rx="2"/>
    <!-- Title lines -->
    <rect x="20" y="20" width="220" height="12" fill="#334155" rx="1"/>
    <rect x="20" y="40" width="250" height="12" fill="#334155" rx="1"/>
    <!-- Date -->
    <rect x="20" y="68" width="80" height="8" fill="#94a3b8" rx="1"/>
    <!-- Tags -->
    <rect x="20" y="88" width="54" height="24" fill="#059669" rx="2"/>
    <rect x="82" y="88" width="72" height="24" fill="#e11d48" rx="2"/>
    <rect x="162" y="88" width="48" height="24" fill="#2563eb" rx="2"/>
    <!-- Read more indicator -->
    <rect x="20" y="128" width="100" height="8" fill="#64748b" rx="1"/>
  </g>
  
  <!-- Pagination section -->
  <g transform="translate(500, 520)">
    <rect x="0" y="0" width="40" height="40" fill="#3b82f6" rx="2"/>
    <rect x="50" y="0" width="40" height="40" fill="#ffffff" stroke="#e2e8f0" stroke-width="2" rx="2"/>
    <rect x="100" y="0" width="40" height="40" fill="#ffffff" stroke="#e2e8f0" stroke-width="2" rx="2"/>
    <rect x="150" y="0" width="40" height="40" fill="#ffffff" stroke="#e2e8f0" stroke-width="2" rx="2"/>
  </g>
  
  <!-- Sidebar elements (categories/tags cloud) -->
  <g transform="translate(60, 500)">
    <rect x="0" y="0" width="80" height="8" fill="#64748b" rx="1"/>
    <rect x="0" y="20" width="60" height="20" fill="#0891b2" rx="2"/>
    <rect x="68" y="20" width="72" height="20" fill="#dc2626" rx="2"/>
    <rect x="148" y="20" width="54" height="20" fill="#16a34a" rx="2"/>
    <rect x="0" y="48" width="66" height="20" fill="#9333ea" rx="2"/>
    <rect x="74" y="48" width="48" height="20" fill="#ea580c" rx="2"/>
    <rect x="130" y="48" width="60" height="20" fill="#0284c7" rx="2"/>
  </g>
  
  <!-- Search bar -->
  <g transform="translate(840, 40)">
    <rect width="300" height="40" fill="#ffffff" stroke="#e2e8f0" stroke-width="2" rx="4"/>
    <rect x="260" y="8" width="24" height="24" fill="#3b82f6" rx="2"/>
  </g>
</svg>