<svg width="1200" height="630" viewBox="0 0 1200 630" xmlns="http://www.w3.org/2000/svg">
  <!-- Background -->
  <rect width="1200" height="630" fill="#f8fafc"/>
  
  <!-- Container with slight shadow -->
  <g filter="url(#shadow)">
    <rect x="80" y="40" width="1040" height="550" fill="#ffffff" rx="8"/>
  </g>
  
  <!-- Header Section -->
  <g transform="translate(120, 80)">
    <!-- Archive title representation -->
    <rect x="0" y="0" width="180" height="40" fill="#1e293b" rx="4"/>
    
    <!-- Subtitle lines -->
    <rect x="0" y="55" width="720" height="12" fill="#e2e8f0" rx="2"/>
    <rect x="0" y="72" width="560" height="12" fill="#e2e8f0" rx="2"/>
  </g>
  
  <!-- Year 2024 Section -->
  <g transform="translate(120, 200)">
    <!-- Year header -->
    <rect x="0" y="0" width="80" height="28" fill="#3b82f6" rx="4"/>
    <line x1="0" y1="40" x2="960" y2="40" stroke="#e2e8f0" stroke-width="2"/>
    
    <!-- Blog posts -->
    <g transform="translate(0, 60)">
      <!-- Post 1 -->
      <rect x="0" y="0" width="50" height="16" fill="#94a3b8" rx="2"/>
      <rect x="70" y="0" width="400" height="16" fill="#475569" rx="2"/>
      <rect x="500" y="2" width="40" height="12" fill="#10b981" rx="12"/>
      <rect x="550" y="2" width="50" height="12" fill="#f59e0b" rx="12"/>
      <rect x="610" y="2" width="45" height="12" fill="#8b5cf6" rx="12"/>
      
      <!-- Post 2 -->
      <rect x="0" y="30" width="50" height="16" fill="#94a3b8" rx="2"/>
      <rect x="70" y="30" width="320" height="16" fill="#475569" rx="2"/>
      <rect x="420" y="32" width="35" height="12" fill="#ef4444" rx="12"/>
      <rect x="465" y="32" width="60" height="12" fill="#06b6d4" rx="12"/>
      
      <!-- Post 3 -->
      <rect x="0" y="60" width="50" height="16" fill="#94a3b8" rx="2"/>
      <rect x="70" y="60" width="380" height="16" fill="#475569" rx="2"/>
      <rect x="480" y="62" width="45" height="12" fill="#ec4899" rx="12"/>
      <rect x="535" y="62" width="40" height="12" fill="#14b8a6" rx="12"/>
      <rect x="585" y="62" width="55" height="12" fill="#f97316" rx="12"/>
    </g>
  </g>
  
  <!-- Year 2023 Section -->
  <g transform="translate(120, 380)">
    <!-- Year header -->
    <rect x="0" y="0" width="80" height="28" fill="#6366f1" rx="4"/>
    <line x1="0" y1="40" x2="960" y2="40" stroke="#e2e8f0" stroke-width="2"/>
    
    <!-- Blog posts -->
    <g transform="translate(0, 60)">
      <!-- Post 1 -->
      <rect x="0" y="0" width="50" height="16" fill="#94a3b8" rx="2"/>
      <rect x="70" y="0" width="350" height="16" fill="#475569" rx="2"/>
      <rect x="450" y="2" width="50" height="12" fill="#84cc16" rx="12"/>
      <rect x="510" y="2" width="45" height="12" fill="#a855f7" rx="12"/>
      
      <!-- Post 2 -->
      <rect x="0" y="30" width="50" height="16" fill="#94a3b8" rx="2"/>
      <rect x="70" y="30" width="420" height="16" fill="#475569" rx="2"/>
      <rect x="520" y="32" width="40" height="12" fill="#0ea5e9" rx="12"/>
      <rect x="570" y="32" width="55" height="12" fill="#eab308" rx="12"/>
      <rect x="635" y="32" width="45" height="12" fill="#e11d48" rx="12"/>
    </g>
  </g>
  
  <!-- Visual accents -->
  <circle cx="1050" cy="100" r="60" fill="#fbbf24" opacity="0.2"/>
  <circle cx="150" cy="500" r="80" fill="#3b82f6" opacity="0.15"/>
  <rect x="950" y="450" width="120" height="80" fill="#10b981" opacity="0.1" rx="8" transform="rotate(15 1010 490)"/>
  
  <!-- Decorative elements -->
  <g transform="translate(1000, 200)">
    <rect x="0" y="0" width="4" height="20" fill="#cbd5e1" rx="2"/>
    <rect x="8" y="5" width="4" height="15" fill="#cbd5e1" rx="2"/>
    <rect x="16" y="2" width="4" height="18" fill="#cbd5e1" rx="2"/>
  </g>
  
  <!-- Filter definition -->
  <defs>
    <filter id="shadow" x="-50%" y="-50%" width="200%" height="200%">
      <feGaussianBlur in="SourceAlpha" stdDeviation="8"/>
      <feOffset dx="0" dy="4" result="offsetblur"/>
      <feFlood flood-color="#000000" flood-opacity="0.08"/>
      <feComposite in2="offsetblur" operator="in"/>
      <feMerge>
        <feMergeNode/>
        <feMergeNode in="SourceGraphic"/>
      </feMerge>
    </filter>
  </defs>
</svg>